<svg xmlns="http://www.w3.org/2000/svg" width="760" height="280" viewBox="0 0 760 280" font-family="'Segoe UI', 'Helvetica Neue', Arial, sans-serif" role="img">
<title>Что может предсказать локальный прогнозист</title>

<rect x="0.5" y="0.5" width="759" height="279" rx="12" fill="#fcfcfb" stroke="#e4e3df"/>
<text x="28.0" y="40.0" font-size="19" fill="#0b0b0b" font-weight="600">Что может предсказать локальный прогнозист</text>
<text x="28.0" y="78.0" font-size="12.5" fill="#8a8985" font-weight="600">Вопрос</text>
<text x="330.0" y="78.0" font-size="12.5" fill="#8a8985" font-weight="600">Надёжность</text>
<text x="500.0" y="78.0" font-size="12.5" fill="#8a8985" font-weight="600">Ветеринар и корова</text>
<line x1="28.0" y1="88.0" x2="732.0" y2="88.0" stroke="#e9e8e4" stroke-width="1" stroke-linecap="round"/>
<text x="28.0" y="122.0" font-size="15" fill="#0b0b0b" font-weight="600">Что произойдёт</text>
<text x="28.0" y="140.0" font-size="12.5" fill="#52514e">тренд</text>
<circle cx="340.0" cy="118.0" r="9.0" fill="#2a78d6" stroke="#2a78d6" stroke-width="1.5"/>
<circle cx="366.0" cy="118.0" r="9.0" fill="#2a78d6" stroke="#2a78d6" stroke-width="1.5"/>
<circle cx="392.0" cy="118.0" r="9.0" fill="#2a78d6" stroke="#2a78d6" stroke-width="1.5"/>
<text x="500.0" y="122.0" font-size="14" fill="#52514e" font-style="italic">отелится</text>
<line x1="28.0" y1="150.0" x2="732.0" y2="150.0" stroke="#e9e8e4" stroke-width="1" stroke-linecap="round"/>
<text x="28.0" y="168.0" font-size="15" fill="#0b0b0b" font-weight="600">Когда</text>
<text x="28.0" y="186.0" font-size="12.5" fill="#52514e">дата</text>
<circle cx="340.0" cy="164.0" r="9.0" fill="#2a78d6" stroke="#2a78d6" stroke-width="1.5"/>
<circle cx="366.0" cy="164.0" r="9.0" fill="#2a78d6" stroke="#2a78d6" stroke-width="1.5"/>
<circle cx="392.0" cy="164.0" r="9.0" fill="none" stroke="#2a78d6" stroke-width="1.5"/>
<text x="500.0" y="168.0" font-size="14" fill="#52514e" font-style="italic">примерно в марте</text>
<line x1="28.0" y1="196.0" x2="732.0" y2="196.0" stroke="#e9e8e4" stroke-width="1" stroke-linecap="round"/>
<text x="28.0" y="214.0" font-size="15" fill="#0b0b0b" font-weight="600">Как именно и с кем</text>
<text x="28.0" y="232.0" font-size="12.5" fill="#52514e">подробности</text>
<circle cx="340.0" cy="210.0" r="9.0" fill="#2a78d6" stroke="#2a78d6" stroke-width="1.5"/>
<circle cx="366.0" cy="210.0" r="9.0" fill="none" stroke="#2a78d6" stroke-width="1.5"/>
<circle cx="392.0" cy="210.0" r="9.0" fill="none" stroke="#2a78d6" stroke-width="1.5"/>
<text x="500.0" y="214.0" font-size="14" fill="#52514e" font-style="italic">масть телёнка</text>
<line x1="28.0" y1="242.0" x2="732.0" y2="242.0" stroke="#e9e8e4" stroke-width="1" stroke-linecap="round"/>
<text x="28.0" y="262.0" font-size="12.5" fill="#52514e">Тренд — закон всего газового баллона; имя на патенте — одна молекула.</text>
</svg>
