<svg xmlns="http://www.w3.org/2000/svg" width="760" height="380" viewBox="0 0 760 380" font-family="'Segoe UI', 'Helvetica Neue', Arial, sans-serif" role="img">
<title>The relay of life cycles</title>
<defs><marker id="arrow-52514e" viewBox="0 0 10 10" refX="8.5" refY="5" markerWidth="7" markerHeight="7" orient="auto-start-reverse"><path d="M0,1 L9,5 L0,9 Z" fill="#52514e"/></marker></defs>
<rect x="0.5" y="0.5" width="759" height="379" rx="12" fill="#fcfcfb" stroke="#e4e3df"/>
<text x="28.0" y="40.0" font-size="19" fill="#0b0b0b" font-weight="600">The relay of life cycles</text>
<text x="28.0" y="64.0" font-size="13.5" fill="#52514e">Each form grows on the slowing branch of the previous one and rises faster. A scheme, not to scale.</text>
<line x1="70.0" y1="330.0" x2="720.0" y2="330.0" stroke="#52514e" stroke-width="1.5" stroke-linecap="round" marker-end="url(#arrow-52514e)"/>
<line x1="70.0" y1="330.0" x2="70.0" y2="90.0" stroke="#52514e" stroke-width="1.5" stroke-linecap="round" marker-end="url(#arrow-52514e)"/>
<text x="720.0" y="352.0" font-size="12" fill="#52514e" text-anchor="end">time →</text>
<text x="56.0" y="210.0" font-size="12" fill="#52514e" text-anchor="middle" transform="rotate(-90 56.0 210.0)">complexity</text>
<path d="M80.0,329.7 L86.0,329.6 L92.0,329.5 L98.0,329.4 L104.0,329.3 L110.0,329.2 L116.0,329.0 L122.0,328.8 L128.0,328.6 L134.0,328.3 L140.0,328.0 L146.0,327.6 L152.0,327.1 L158.0,326.6 L164.0,325.9 L170.0,325.2 L176.0,324.3 L182.0,323.3 L188.0,322.1 L194.0,320.7 L200.0,319.1 L206.0,317.3 L212.0,315.3 L218.0,313.0 L224.0,310.5 L230.0,307.8 L236.0,304.9 L242.0,301.7 L248.0,298.4 L254.0,295.0 L260.0,291.6 L266.0,288.2 L272.0,284.8 L278.0,281.5 L284.0,278.3 L290.0,275.4 L296.0,272.7 L302.0,270.2 L308.0,267.9 L314.0,265.9 L320.0,264.1 L326.0,262.5 L332.0,261.1 L338.0,259.9 L344.0,258.9 L350.0,258.0 L356.0,257.3 L362.0,256.6 L368.0,256.1 L374.0,255.6 L380.0,255.2 L386.0,254.9 L392.0,254.6 L398.0,254.4 L404.0,254.2 L410.0,254.0 L416.0,253.9 L422.0,253.8 L428.0,253.7 L434.0,253.6 L440.0,253.5 L446.0,253.5 L452.0,253.4 L458.0,253.4 L464.0,253.4 L470.0,253.3 L476.0,253.3 L482.0,253.3 L488.0,253.3 L494.0,253.3 L500.0,253.3 L506.0,253.2 L512.0,253.2 L518.0,253.2 L524.0,253.2 L530.0,253.2 L536.0,253.2 L542.0,253.2 L548.0,253.2 L554.0,253.2 L560.0,253.2" stroke="#8a8985" stroke-width="2.5" fill="none" stroke-linejoin="round" stroke-linecap="round"/>
<text x="470.0" y="290.0" font-size="12" fill="#52514e" font-weight="600"><tspan x="470.0" dy="0.0">chemical</tspan><tspan x="470.0" dy="15.0">evolution</tspan></text>
<path d="M260.0,272.1 L264.4,272.1 L268.8,272.0 L273.2,271.9 L277.6,271.8 L282.0,271.7 L286.4,271.6 L290.8,271.4 L295.2,271.2 L299.6,271.0 L304.0,270.7 L308.4,270.4 L312.8,270.0 L317.2,269.6 L321.6,269.1 L326.0,268.5 L330.4,267.8 L334.8,266.9 L339.2,265.9 L343.6,264.8 L348.0,263.5 L352.4,262.1 L356.8,260.4 L361.2,258.6 L365.6,256.6 L370.0,254.4 L374.4,252.0 L378.8,249.4 L383.2,246.8 L387.6,244.0 L392.0,241.2 L396.4,238.4 L400.8,235.6 L405.2,233.0 L409.6,230.4 L414.0,228.0 L418.4,225.8 L422.8,223.8 L427.2,222.0 L431.6,220.3 L436.0,218.9 L440.4,217.6 L444.8,216.5 L449.2,215.5 L453.6,214.6 L458.0,213.9 L462.4,213.3 L466.8,212.8 L471.2,212.4 L475.6,212.0 L480.0,211.7 L484.4,211.4 L488.8,211.2 L493.2,211.0 L497.6,210.8 L502.0,210.7 L506.4,210.6 L510.8,210.5 L515.2,210.4 L519.6,210.3 L524.0,210.3 L528.4,210.2 L532.8,210.2 L537.2,210.2 L541.6,210.1 L546.0,210.1 L550.4,210.1 L554.8,210.1 L559.2,210.1 L563.6,210.1 L568.0,210.0 L572.4,210.0 L576.8,210.0 L581.2,210.0 L585.6,210.0 L590.0,210.0 L594.4,210.0 L598.8,210.0 L603.2,210.0 L607.6,210.0 L612.0,210.0" stroke="#008300" stroke-width="2.5" fill="none" stroke-linejoin="round" stroke-linecap="round"/>
<text x="575.0" y="236.0" font-size="12" fill="#008300" font-weight="600"><tspan x="575.0" dy="0.0">biological</tspan><tspan x="575.0" dy="15.0">life</tspan></text>
<path d="M430.0,229.0 L432.4,229.0 L434.8,228.9 L437.2,228.9 L439.6,228.8 L442.0,228.7 L444.4,228.6 L446.8,228.5 L449.2,228.4 L451.6,228.2 L454.0,228.1 L456.4,227.8 L458.8,227.6 L461.2,227.3 L463.6,226.9 L466.0,226.5 L468.4,226.0 L470.8,225.4 L473.2,224.7 L475.6,224.0 L478.0,223.1 L480.4,222.1 L482.8,220.9 L485.2,219.7 L487.6,218.2 L490.0,216.7 L492.4,215.1 L494.8,213.3 L497.2,211.4 L499.6,209.5 L502.0,207.6 L504.4,205.7 L506.8,203.8 L509.2,201.9 L511.6,200.1 L514.0,198.5 L516.4,197.0 L518.8,195.5 L521.2,194.3 L523.6,193.1 L526.0,192.1 L528.4,191.2 L530.8,190.5 L533.2,189.8 L535.6,189.2 L538.0,188.7 L540.4,188.3 L542.8,187.9 L545.2,187.6 L547.6,187.4 L550.0,187.1 L552.4,187.0 L554.8,186.8 L557.2,186.7 L559.6,186.6 L562.0,186.5 L564.4,186.4 L566.8,186.3 L569.2,186.3 L571.6,186.2 L574.0,186.2 L576.4,186.2 L578.8,186.1 L581.2,186.1 L583.6,186.1 L586.0,186.1 L588.4,186.1 L590.8,186.1 L593.2,186.0 L595.6,186.0 L598.0,186.0 L600.4,186.0 L602.8,186.0 L605.2,186.0 L607.6,186.0 L610.0,186.0 L612.4,186.0 L614.8,186.0 L617.2,186.0 L619.6,186.0 L622.0,186.0" stroke="#2a78d6" stroke-width="2.5" fill="none" stroke-linejoin="round" stroke-linecap="round"/>
<text x="630.0" y="190.0" font-size="12" fill="#2a78d6" font-weight="600">humanity</text>
<path d="M520.0,200.1 L521.8,200.1 L523.6,200.0 L525.4,200.0 L527.2,199.9 L529.0,199.8 L530.8,199.6 L532.6,199.5 L534.4,199.3 L536.2,199.1 L538.0,198.9 L539.8,198.6 L541.6,198.2 L543.4,197.8 L545.2,197.3 L547.0,196.8 L548.8,196.1 L550.6,195.3 L552.4,194.4 L554.2,193.4 L556.0,192.2 L557.8,190.9 L559.6,189.4 L561.4,187.7 L563.2,185.8 L565.0,183.8 L566.8,181.5 L568.6,179.2 L570.4,176.7 L572.2,174.2 L574.0,171.6 L575.8,169.0 L577.6,166.5 L579.4,164.0 L581.2,161.7 L583.0,159.4 L584.8,157.4 L586.6,155.5 L588.4,153.8 L590.2,152.3 L592.0,151.0 L593.8,149.8 L595.6,148.8 L597.4,147.9 L599.2,147.1 L601.0,146.4 L602.8,145.9 L604.6,145.4 L606.4,145.0 L608.2,144.6 L610.0,144.3 L611.8,144.1 L613.6,143.9 L615.4,143.7 L617.2,143.6 L619.0,143.4 L620.8,143.3 L622.6,143.2 L624.4,143.2 L626.2,143.1 L628.0,143.1 L629.8,143.0 L631.6,143.0 L633.4,143.0 L635.2,142.9 L637.0,142.9 L638.8,142.9 L640.6,142.9 L642.4,142.9 L644.2,142.9 L646.0,142.8 L647.8,142.8 L649.6,142.8 L651.4,142.8 L653.2,142.8 L655.0,142.8 L656.8,142.8 L658.6,142.8 L660.4,142.8 L662.2,142.8 L664.0,142.8" stroke="#eb6834" stroke-width="2.5" fill="none" stroke-linejoin="round" stroke-linecap="round"/>
<text x="505.0" y="146.0" font-size="12" fill="#eb6834" text-anchor="end" font-weight="600"><tspan x="505.0" dy="0.0">the</tspan><tspan x="505.0" dy="15.0">technosphere</tspan></text>
<path d="M620.0,157.0 L621.2,156.9 L622.4,156.9 L623.6,156.8 L624.8,156.8 L626.0,156.7 L627.2,156.6 L628.4,156.4 L629.6,156.3 L630.8,156.1 L632.0,155.9 L633.2,155.7 L634.4,155.4 L635.6,155.1 L636.8,154.6 L638.0,154.2 L639.2,153.6 L640.4,153.0 L641.6,152.2 L642.8,151.4 L644.0,150.4 L645.2,149.3 L646.4,148.0 L647.6,146.6 L648.8,145.0 L650.0,143.3 L651.2,141.5 L652.4,139.5 L653.6,137.5 L654.8,135.4 L656.0,133.2 L657.2,131.0 L658.4,128.9 L659.6,126.9 L660.8,124.9 L662.0,123.1 L663.2,121.4 L664.4,119.8 L665.6,118.4 L666.8,117.1 L668.0,116.0 L669.2,115.0 L670.4,114.2 L671.6,113.4 L672.8,112.8 L674.0,112.2 L675.2,111.8 L676.4,111.3 L677.6,111.0 L678.8,110.7 L680.0,110.5 L681.2,110.3 L682.4,110.1 L683.6,110.0 L684.8,109.8 L686.0,109.7 L687.2,109.6 L688.4,109.6 L689.6,109.5 L690.8,109.5 L692.0,109.4 L693.2,109.4 L694.4,109.4 L695.6,109.3 L696.8,109.3 L698.0,109.3 L699.2,109.3 L700.4,109.3 L701.6,109.3 L702.8,109.2 L704.0,109.2 L705.2,109.2 L706.4,109.2 L707.6,109.2 L708.8,109.2 L710.0,109.2" stroke="#4a3aa7" stroke-width="2.5" fill="none" stroke-linejoin="round" stroke-linecap="round" stroke-dasharray="6 4"/>
<text x="700.0" y="96.0" font-size="12" fill="#4a3aa7" text-anchor="end" font-weight="600">?</text>
<line x1="560.0" y1="330.0" x2="560.0" y2="100.0" stroke="#52514e" stroke-width="1" stroke-linecap="round" stroke-dasharray="3 3"/>
<text x="566.0" y="322.0" font-size="11.5" fill="#52514e" font-style="italic">we are here</text>
</svg>
